<svg xmlns="http://www.w3.org/2000/svg" width="24.074" height="24.074"><path d="M21.065 16.551h-4.514c-.423 0-.78-.149-1.07-.447a1.465 1.465 0 0 1-.435-1.057V3.009c0-.423.145-.78.435-1.07.29-.29.647-.434 1.07-.434l6.019 13.542c0 .407-.145.76-.435 1.057-.29.298-.647.447-1.07.447Zm-3.01 7.523H6.02c-.862 0-1.772-.34-2.728-1.022A9.094 9.094 0 0 1 .93 20.607C.309 19.658 0 18.808 0 18.056h12.037V.752c0-.22.075-.4.224-.54A.743.743 0 0 1 12.79 0c.203 0 .38.07.528.212a.712.712 0 0 1 .224.54v17.304h10.532c0 .752-.31 1.602-.928 2.55a9.094 9.094 0 0 1-2.363 2.446c-.956.682-1.865 1.022-2.727 1.022Zm-9.027-7.523H3.009c-.407 0-.76-.149-1.058-.447a1.446 1.446 0 0 1-.446-1.057L9.028 1.505c.423 0 .78.145 1.07.435.29.29.435.646.435 1.07v12.037c0 .407-.145.76-.435 1.057-.29.298-.647.447-1.07.447Z" fill="#fff" fill-rule="evenodd" data-name="Trazado 11168"/></svg>