<svg xmlns="http://www.w3.org/2000/svg" width="26.302" height="21.041"><path d="M25.644 18.411H24.63L14.776 4.84l2.195-3.022a.658.658 0 0 0-.146-.919L15.761.126a.657.657 0 0 0-.919.146l-1.691 2.33-1.692-2.33a.658.658 0 0 0-.919-.147L9.477.898a.657.657 0 0 0-.146.919l2.195 3.022-9.854 13.572H.658A.657.657 0 0 0 0 19.07v1.315c0 .363.294.657.658.657h24.986a.657.657 0 0 0 .658-.657v-1.315a.657.657 0 0 0-.658-.658Zm-12.493-6.575 4.782 6.575H8.369l4.782-6.575Z" fill="#fff" fill-rule="evenodd" data-name="Trazado 11167"/></svg>