<svg xmlns="http://www.w3.org/2000/svg" width="18.055" height="24.074"><path d="M3.806 22.204a1.505 1.505 0 1 0 2.92.73l1.187-4.747-2.482-2.482-1.625 6.499Zm.7-9.221L6.442 5.5a.738.738 0 0 0-.56-.896c-2.064-.495-4.155.709-4.67 2.688L.022 11.907a.738.738 0 0 0 .56.896l2.99.717c.412.1.83-.142.933-.537Zm12.797-5.46h-.752a.752.752 0 0 0-.752.752v.753h-1.634l-2.2-2.2a2.743 2.743 0 0 0-1.954-.81 2.76 2.76 0 0 0-2.682 2.094l-1.265 5.065a1.505 1.505 0 0 0 .396 1.429l4.072 4.072v3.891a1.505 1.505 0 0 0 3.01 0v-3.89a2.99 2.99 0 0 0-.882-2.128l-2.201-2.202c.007-.023.023-.041.029-.066l.935-3.741 1.055 1.054c.282.283.664.441 1.063.441h2.257v11.285c0 .416.337.752.752.752h.753a.752.752 0 0 0 .752-.752V8.275a.751.751 0 0 0-.752-.752Zm-6.018-3.01a2.257 2.257 0 1 0 0-4.513 2.257 2.257 0 0 0 0 4.514Z" fill="#fff" fill-rule="evenodd" data-name="Trazado 11169"/></svg>