<svg xmlns="http://www.w3.org/2000/svg" width="21.083" height="24.074"><path d="M20.32 19.349c-.203.11-.446.172-.728.188l-.024.023H13.55v3.01c0 .407-.145.76-.435 1.058-.29.298-.647.446-1.07.446h-3.01c-.407 0-.76-.148-1.057-.446a1.446 1.446 0 0 1-.447-1.058v-3.01H1.512c0-.015-.007-.023-.023-.023a1.723 1.723 0 0 1-.729-.188 1.437 1.437 0 0 1-.705-.894 1.375 1.375 0 0 1 .164-1.128l3.503-5.29h-.705v-.047c-.298.016-.548-.039-.752-.164a1.437 1.437 0 0 1-.705-.894 1.375 1.375 0 0 1 .164-1.128L9.247.752c0-.015.032-.055.094-.117l.13-.13L9.6.388 9.753.27l.164-.105.188-.094.2-.047L10.54 0l.235.024.2.047.188.094.165.105.153.118.13.117.128.13.118.117 7.523 9.052c.204.36.251.736.141 1.128-.11.392-.345.69-.705.894-.204.125-.455.18-.752.164v.047h-.706l3.527 5.29c.204.36.25.737.14 1.128-.109.392-.344.69-.704.894Z" fill="#fff" fill-rule="evenodd" data-name="Trazado 11166"/></svg>