<svg xmlns="http://www.w3.org/2000/svg" width="21.038" height="21.041"><path d="m11.838 13.513 1.671-1.672 7.529 7.532-1.668 1.668-7.532-7.528Zm5.018-6.699L20.2 3.471C15.582-1.147 8.1-1.16 3.482 3.447c4.595-1.52 9.715-.292 13.374 3.367ZM3.447 3.482c-4.606 4.618-4.594 12.1.024 16.718l3.343-3.344c-3.659-3.659-4.886-8.78-3.367-13.374Zm.024-.023-.012.012c-.444 3.518 1.368 8.043 5.027 11.713l6.699-6.698c-3.66-3.66-8.196-5.471-11.714-5.027Z" fill="#fff" fill-rule="evenodd" data-name="Trazado 11170"/></svg>